<svg xmlns="http://www.w3.org/2000/svg" viewBox="0 0 200 200" width="200" height="200" role="img" aria-label="Ayol avatar">
  <rect width="200" height="200" rx="28" fill="#4d4f55"/>
  <g fill="#d7dae0">
    <!-- soch: yuzni o'rab turuvchi uzun soch -->
    <path d="M58 96c0-30 19-52 42-52s42 22 42 52c0 14-4 26-10 33l-8-6c4-9 6-19 6-29 0-21-13-37-30-37S70 75 70 96c0 10 2 20 6 29l-8 6c-6-7-10-19-10-35z"/>
    <!-- bosh -->
    <circle cx="100" cy="82" r="30"/>
    <!-- yelka -->
    <path d="M46 176c0-31 25-49 54-49s54 18 54 49z"/>
  </g>
</svg>
